<svg width="40" height="41" viewBox="0 0 40 41" fill="none" xmlns="http://www.w3.org/2000/svg">
<g clip-path="url(#clip0_2_85)">
<circle cx="20" cy="20.9979" r="20" fill="#6667AB"/>
<g clip-path="url(#clip1_2_85)">
<path d="M11.1666 27.7479V22.0188C11.1666 21.324 11.3406 20.6302 11.6875 19.9354" stroke="white" stroke-width="2" stroke-linecap="round" stroke-linejoin="round"/>
<path d="M19.5 16.8104C19.5 15.7688 19.4895 12.5708 15.3333 13.1646C11.6875 13.6854 11.1666 15.7688 11.1666 16.8104C11.1666 18.3729 11.1687 20.9771 14.2916 20.9771C18.4583 20.9771 19.5 18.3729 19.5 16.8104Z" stroke="white" stroke-width="2" stroke-linecap="round" stroke-linejoin="round"/>
<path d="M11.1667 21.4979C9.77817 22.1927 9.08337 22.8865 9.08337 23.5813C9.08337 24.6229 9.08337 26.7063 10.6459 27.7479C13.7719 29.8313 17.4167 30.8729 19.5 30.8729C21.5834 30.8729 25.2282 29.8313 28.3542 27.7479C29.9167 26.7063 29.9167 24.6229 29.9167 23.5813C29.9167 22.8865 29.2219 22.1927 27.8334 21.4979" stroke="white" stroke-width="2" stroke-linecap="round" stroke-linejoin="round"/>
<path d="M27.8333 27.7479V22.0188C27.8333 21.324 27.6594 20.6302 27.3125 19.9354" stroke="white" stroke-width="2" stroke-linecap="round" stroke-linejoin="round"/>
<path d="M19.5 16.8104L19.5031 16.5011L19.5135 16.2209L19.5417 15.9104L19.5552 15.8011L19.5896 15.5771C19.6042 15.5011 19.6198 15.425 19.6375 15.3479L19.7 15.1156C20.05 13.9511 21.0146 12.7854 23.6667 13.1646C26.6229 13.5865 27.524 15.0365 27.7604 16.125L27.7979 16.3375C27.8031 16.3719 27.8083 16.4063 27.8115 16.4396L27.8281 16.6323L27.8333 16.8104L27.8302 17.3209L27.8146 17.7313L27.7937 18.0136C27.6667 19.4365 27.1115 20.9771 24.7083 20.9771C21.3167 20.9771 19.9958 19.2521 19.6219 17.7677L19.5667 17.5156C19.5517 17.4345 19.5392 17.3528 19.5292 17.2709L19.5073 17.0344C19.5026 16.9598 19.5001 16.8851 19.5 16.8104Z" stroke="white" stroke-width="2" stroke-linecap="round" stroke-linejoin="round"/>
<path d="M17.4166 24.6229V26.7063" stroke="white" stroke-width="2" stroke-linecap="round" stroke-linejoin="round"/>
<path d="M21.5834 24.6229V26.7063" stroke="white" stroke-width="2" stroke-linecap="round" stroke-linejoin="round"/>
</g>
</g>
<defs>
<clipPath id="clip0_2_85">
<rect width="40" height="40" fill="white" transform="translate(0 0.997925)"/>
</clipPath>
<clipPath id="clip1_2_85">
<rect width="25" height="25" fill="white" transform="translate(7 8.99792)"/>
</clipPath>
</defs>
</svg>
