<svg width="40" height="40" viewBox="0 0 40 40" fill="none" xmlns="http://www.w3.org/2000/svg">
<circle cx="20" cy="20" r="19" fill="white"/>
<path d="M19.9999 40C30.9215 40 40 30.9216 40 20C40 9.05882 30.9019 0 19.9803 0C9.03912 0 0 9.05882 0 20C0 30.9216 9.05878 40 19.9999 40ZM19.9999 18.902C17.2744 18.8823 15.1176 16.6078 15.1176 13.5686C15.1176 10.7254 17.2744 8.3529 19.9999 8.3529C22.7058 8.3529 24.8627 10.7254 24.8627 13.5686C24.8627 16.6078 22.7058 18.9412 19.9999 18.902ZM11.3137 29.8236C10.5489 29.8236 10.1764 29.3137 10.1764 28.6275C10.1764 26.5294 13.3333 21.1373 19.9999 21.1373C26.6666 21.1373 29.8039 26.5294 29.8039 28.6275C29.8039 29.3137 29.4312 29.8236 28.6862 29.8236H11.3137Z" fill="#6667AB"/>
</svg>
